<?xml version="1.0" encoding="utf-8"?>
<svg width="270" height="62" viewBox="0 0 270 62" fill="none" xmlns="http://www.w3.org/2000/svg">
<g clip-path="url(#clip0_13692_1821222)">
<path fill-rule="evenodd" clip-rule="evenodd" d="M104.525 52.1328C102.513 52.1328 100.829 53.6744 100.829 55.7766C100.829 57.8788 102.513 59.4204 104.525 59.4204C106.536 59.4204 108.22 57.8788 108.22 55.7766C108.22 53.6744 106.489 52.1328 104.525 52.1328ZM107.472 55.7787C107.472 57.5072 106.163 58.8152 104.525 58.8152C102.842 58.8152 101.532 57.5072 101.579 55.7787C101.579 54.0502 102.842 52.7422 104.525 52.7422C106.163 52.7422 107.472 54.0502 107.472 55.7787ZM103.73 57.8763H103.076V53.6719H104.666C105.648 53.6719 106.163 54.0456 106.163 54.8865C106.163 55.6339 105.695 55.9609 105.087 56.0544L106.303 57.923H105.601L104.479 56.1011H103.73V57.8763ZM105.554 54.7948C105.554 55.4488 105.086 55.4955 104.525 55.4955H103.73V54.1875H104.619C105.086 54.1875 105.554 54.2809 105.554 54.7948Z" fill="#1E1E1E"/>
<path fill-rule="evenodd" clip-rule="evenodd" d="M49.3215 52.1328C47.3102 52.1328 45.6263 53.6744 45.6263 55.7766C45.6263 57.8788 47.357 59.4204 49.3215 59.4204C51.3328 59.4204 53.0167 57.8788 53.0167 55.7766C53.0167 53.6744 51.286 52.1328 49.3215 52.1328ZM52.268 55.7787C52.268 57.5072 50.9583 58.8152 49.3211 58.8152C47.684 58.8152 46.3743 57.5072 46.3743 55.7787C46.3743 54.0502 47.6373 52.7422 49.3211 52.7422C50.9583 52.7422 52.268 54.0502 52.268 55.7787ZM48.5721 57.8763H47.9173V53.6719H49.5076C50.4899 53.6719 51.0044 54.0456 51.0044 54.8865C51.0044 55.6339 50.5367 55.9609 49.9286 56.0544L51.1448 57.923H50.4431L49.3205 56.0544H48.5721V57.8763ZM50.3509 54.7948C50.3509 55.4488 49.8831 55.4955 49.3218 55.4955H48.5267V54.1875H49.4154C49.8831 54.1875 50.3509 54.2809 50.3509 54.7948Z" fill="#1E1E1E"/>
<path d="M16.2989 0.0467156L42.3525 0V16.1169H58.3962V42.0907H42.3525V57.974H16.2989V42.0907H0.208313V16.1169H16.2989V0.0467156Z" fill="#3158BB"/>
<path fill-rule="evenodd" clip-rule="evenodd" d="M69.7633 1.16406C60.1745 24.008 72.523 48.8607 89.97 58.8578C107.324 48.8607 119.766 24.1014 110.083 1.16406C97.2201 6.91008 82.7667 6.76993 69.7633 1.16406Z" fill="#3158BB"/>
<path d="M13.1653 29.757C13.1653 20.7876 20.4622 13.5 29.443 13.5C38.4238 13.5 45.7207 20.7876 45.7207 29.757C45.7207 38.7264 38.4238 46.014 29.443 46.014C20.4622 46.014 13.1653 38.7264 13.1653 29.757Z" fill="white"/>
<path fill-rule="evenodd" clip-rule="evenodd" d="M89.8023 9.90471C89.8178 9.90428 89.8269 9.90402 89.8296 9.90402C89.8365 9.90402 89.8546 9.90447 89.8835 9.90518C90.6351 9.92374 98.6697 10.1221 105.967 7.28795L106.762 6.96094L107.183 7.70839C111.346 14.9026 110.691 39.1947 90.5312 53.4896L89.9231 53.9101L89.315 53.4896C69.2018 39.1947 68.5002 14.9026 72.6632 7.70839L73.0842 6.96094L73.8793 7.28795C81.1531 10.1483 89.2663 9.91981 89.8023 9.90471ZM89.933 11.9129C89.8816 11.9119 89.8468 11.9112 89.8294 11.9112C89.5592 11.9562 81.6531 12.2178 73.9666 9.52462C74.0876 9.25881 74.2145 9.01068 74.347 8.78125L73.084 9.20169C73.3776 9.31379 73.6719 9.42138 73.9666 9.52462C70.5767 16.9726 71.8852 38.3092 89.8528 51.4783C89.6599 51.6197 89.465 51.7602 89.2681 51.8997H90.4375C90.2407 51.7602 90.0458 51.6197 89.8528 51.4783C107.819 38.31 109.129 16.9752 105.74 9.52597C106.034 9.42238 106.328 9.31435 106.622 9.20169L105.359 8.78125C105.491 9.01107 105.619 9.25965 105.74 9.52597C98.464 12.085 90.9502 11.9334 89.933 11.9129Z" fill="white"/>
<path d="M25.2324 16.7734C25.2324 16.7734 23.8759 17.1004 22.0517 18.2216C20.321 19.2961 19.1517 20.6041 19.1517 20.6041C19.1517 20.6041 24.8582 20.6041 25.3727 20.6041C26.1211 20.6041 25.7937 20.137 25.6534 19.9501C25.4195 19.5764 25.0453 19.0158 24.9985 18.0348C24.9985 17.334 25.2324 16.7734 25.2324 16.7734Z" fill="#3158BB"/>
<path d="M33.4182 16.7734C33.4182 16.7734 34.7746 17.1004 36.5989 18.2216C38.3295 19.2961 39.4989 20.6041 39.4989 20.6041C39.4989 20.6041 33.7924 20.6041 33.2778 20.6041C32.5294 20.6041 32.8569 20.137 32.9972 19.9501C33.2311 19.5764 33.6053 19.0158 33.652 18.0348C33.6988 17.334 33.4182 16.7734 33.4182 16.7734Z" fill="#3158BB"/>
<path d="M29.4893 30.7369C30.0506 30.7369 30.3313 30.9705 30.799 31.718C31.3135 32.4654 38.704 43.2567 38.704 43.2567L39.9201 42.2757L39.3588 41.8552C39.3588 41.8552 32.3426 28.9617 32.1555 28.4479C31.8748 27.8406 31.7345 26.9997 31.9684 26.2522C32.2023 25.5982 33.1378 25.1311 33.6523 25.0376C34.1668 24.9442 44.9718 24.0099 44.9718 24.0099L44.4105 22.7486C44.4105 22.7486 32.8103 22.6084 32.2958 22.6084C31.4071 22.6084 30.6587 22.2347 30.3313 21.6274C30.0038 21.0668 30.378 20.2259 30.4716 19.8989C30.6119 19.4318 31.4539 18.6843 31.4071 17.3763C31.3603 15.5077 29.3958 15.4609 29.3958 15.4609C29.3958 15.4609 27.478 15.5077 27.4312 17.3763C27.3845 18.6843 28.2264 19.4318 28.3667 19.8989C28.4603 20.1792 28.8345 21.0201 28.5071 21.6274C28.1796 22.188 27.4312 22.6084 26.5425 22.6084C25.9812 22.6084 14.4278 22.7486 14.4278 22.7486L13.8665 24.0099C13.8665 24.0099 24.6715 24.9442 25.186 25.0376C25.7006 25.1311 26.6828 25.5982 26.8699 26.2522C27.1038 26.9997 26.9635 27.8873 26.6828 28.4479C26.449 28.9617 19.4795 41.8552 19.4795 41.8552L18.9182 42.2757L20.1343 43.2567C20.1343 43.2567 27.5248 32.4654 28.0393 31.718C28.5538 30.9705 28.928 30.7369 29.4893 30.7369Z" fill="#3158BB"/>
<path d="M15.5501 29.9415C15.5501 28.7736 15.6904 27.6057 15.9711 26.5312L23.9228 27.2787C24.6712 27.3254 24.7648 27.6524 24.4841 28.1663L18.7308 38.7707C16.7195 36.3415 15.5501 33.2583 15.5501 29.9415Z" fill="#3158BB"/>
<path d="M29.3489 43.7254C27.4312 43.7254 25.5602 43.305 23.8763 42.6043C24.7182 41.2962 28.8344 35.0831 28.9747 34.8495C29.1151 34.5692 29.2554 34.2422 29.4893 34.2422C29.7231 34.2422 29.9102 34.5692 30.0506 34.8495C30.1909 35.0831 34.0732 41.0159 35.0555 42.5108C33.3248 43.2583 31.407 43.7254 29.3489 43.7254Z" fill="#3158BB"/>
<path d="M43.1472 29.9415C43.1472 28.7736 43.0069 27.6057 42.7262 26.5312L34.7745 27.2787C34.0261 27.3254 33.9326 27.6524 34.2132 28.1663L39.9665 38.7707C41.9311 36.3415 43.1472 33.2583 43.1472 29.9415Z" fill="#3158BB"/>
<path d="M91.2322 22.0046C89.7354 21.9112 88.566 21.6309 88.0047 21.5375L87.7708 19.7156C88.6128 19.5754 88.9402 19.2017 89.0805 18.9681C89.6886 19.0148 90.858 19.2017 90.9047 19.0616C90.9515 18.6878 88.9402 18.4075 88.9402 18.2674C88.9402 18.174 90.1563 18.0338 90.2031 17.8937C90.2967 17.7068 89.6886 16.8659 89.1273 16.2586C88.6128 15.698 87.8644 15.3243 87.8644 15.3243C87.8644 14.9039 87.8176 14.4834 87.9111 14.063C87.9579 13.5958 91.1854 14.6236 91.1386 15.3243C91.0918 16.9594 91.6064 17.7535 91.6064 17.7535C92.8225 17.2864 93.337 16.4455 93.8983 16.0718C94.9741 15.4177 96.05 16.8192 95.6758 17.2396C94.5999 18.7345 93.7112 19.0616 92.4951 20.463C92.2612 20.8835 91.2322 22.0046 91.2322 22.0046Z" fill="white"/>
<path fill-rule="evenodd" clip-rule="evenodd" d="M86.4612 16.1599C85.9935 16.1132 85.8999 16.2066 86.3209 16.4869C86.5548 16.6271 86.7887 16.6738 86.8354 16.7672C86.929 16.9074 87.1161 17.0008 87.3967 16.9074C87.6774 16.8139 87.7709 16.5803 87.6774 16.3935C87.6774 16.2533 86.8822 16.1599 86.4612 16.1599ZM85.0114 21.2549C87.1162 22.1892 89.5018 22.5162 91.8873 22.7965C95.8631 23.2637 97.1728 29.4301 91.6066 30.3177L91.5598 29.9907V27.1411C92.5421 26.9542 92.4018 25.7863 91.1389 25.6929C87.4437 25.4126 85.5727 25.3659 83.1871 23.9644C79.8661 22.0491 79.3984 17.2841 83.7017 15.6957C85.1049 15.1819 87.163 15.6957 87.6308 15.976C88.2388 16.303 88.8001 16.9104 89.1743 17.2841C89.6889 17.7979 89.1276 17.7512 88.6598 17.7512H86.1807C85.9001 17.7512 85.6662 17.7979 85.6194 17.8914C85.5259 18.1717 87.0695 18.6388 87.584 18.8257C88.4259 19.1527 88.1921 19.2461 87.7711 19.2928C87.0227 19.3863 85.9469 19.2928 85.4323 19.1994C85.0581 19.1527 84.2162 18.9191 84.2162 18.9191C83.421 19.3396 83.8888 20.741 85.0114 21.2549Z" fill="white"/>
<path d="M88.3792 30.6953C88.847 30.8822 89.7357 30.9756 90.9051 31.069L90.9519 26.304L87.9583 26.1172C87.9583 26.1172 87.3502 26.9581 87.0228 27.4252L88.3792 30.6953Z" fill="white"/>
<path d="M90.905 34.8509L90.7179 38.6349C89.5485 38.3079 88.9872 37.794 88.9872 37.794L88.8001 34.6641L90.063 34.8042L90.905 34.8509Z" fill="white"/>
<path d="M89.0814 41.7188L89.5023 48.4458C89.5491 48.7261 90.5782 48.7261 90.5782 48.3991C90.6249 47.7451 90.812 42.9801 90.812 42.9801C90.2507 41.7655 89.5023 41.7188 89.0814 41.7188Z" fill="white"/>
<path d="M87.4441 46.8106C87.5844 47.7449 88.1924 47.9318 88.1924 47.231C88.1924 46.9507 88.3795 46.2033 88.8005 45.8763L88.7537 43.9609C87.8183 44.5682 87.3037 45.4091 87.4441 46.8106Z" fill="white"/>
<path d="M91.4675 35.3666C91.1869 35.6468 91.2804 37.6089 91.2804 37.6089C91.2804 37.6089 91.7949 37.6089 92.1691 37.4688C96.2853 35.8337 94.274 31.7227 90.0643 31.5359C88.9417 31.4424 87.9126 31.5826 87.6787 30.6016L86.79 28.3125C86.79 28.3125 85.5271 28.8731 85.2932 29.8541C85.0593 30.9286 85.1061 32.4235 86.7432 33.3111C88.0062 34.1052 90.2046 33.9184 90.9998 34.0585C92.7772 34.4322 91.6546 35.2264 91.4675 35.3666Z" fill="white"/>
<path d="M90.437 39.3316C93.6177 40.6397 93.758 43.0222 91.2789 44.4703L91.1854 42.2747C90.9047 41.247 88.6595 40.8265 87.6305 40.3594C85.5256 39.2382 85.6659 37.3229 87.116 36.2017C87.5369 35.8747 88.3321 35.7812 88.3321 35.7812L88.5192 37.7433C87.5837 38.2572 88.4257 38.4908 90.437 39.3316Z" fill="white"/>
</g>
<path fill-rule="evenodd" clip-rule="evenodd" d="M193.855 10.1818C193.855 13.5922 191.405 14.8089 189.297 14.8089C187.189 14.8089 184.721 13.5922 184.721 10.1818C184.721 6.77145 187.189 5.55469 189.297 5.55469C191.387 5.55469 193.855 6.77145 193.855 10.1818ZM191.681 10.1594C191.681 8.27432 190.841 7.22894 189.298 7.22894C187.756 7.22894 186.916 8.27432 186.916 10.1594C186.916 12.0446 187.756 13.0899 189.298 13.0899C190.841 13.0899 191.681 12.0446 191.681 10.1594Z" fill="#1E1E1E"/>
<rect x="188.238" y="20.6094" width="2.10791" height="8.79151" fill="#1E1E1E"/>
<path fill-rule="evenodd" clip-rule="evenodd" d="M199.927 25.503H193.74C193.712 25.503 193.689 25.5134 193.668 25.5227C193.651 25.5304 193.636 25.5373 193.62 25.5373C193.603 25.5716 193.586 25.623 193.586 25.6744L193.587 25.6823C193.656 26.3894 193.817 28.0393 195.917 28.0393C196.568 28.0393 197.322 27.7309 197.596 27.0454H199.773C198.933 29.4446 196.619 29.6331 195.917 29.6331C192.952 29.6331 191.461 28.0222 191.461 24.8175C191.461 23.7721 191.769 20.3789 195.728 20.3789C197.305 20.3789 199.927 20.9959 199.927 25.2288V25.503ZM197.731 24.0991C197.594 22.591 196.583 22.0426 195.692 22.0426C194.527 22.0426 193.79 22.7624 193.653 24.0991C193.635 24.1334 193.653 24.1848 193.687 24.2191C193.721 24.2534 193.755 24.2705 193.807 24.2705H197.577C197.628 24.2705 197.663 24.2534 197.697 24.2191C197.714 24.1848 197.731 24.1505 197.731 24.0991Z" fill="#1E1E1E"/>
<path d="M180.474 24.3478C180.474 22.9768 181.297 22.0857 182.548 22.0857C184.296 22.0857 184.296 23.4567 184.296 24.0393V29.4205H186.421V23.2681C186.421 21.4858 185.256 20.389 183.354 20.389C182.051 20.389 181.091 21.0574 180.817 21.7086C180.766 21.8457 180.474 21.7943 180.474 21.6401V17.4414H178.367V29.4205H180.474V24.3478Z" fill="#1E1E1E"/>
<path fill-rule="evenodd" clip-rule="evenodd" d="M186.488 37.6998V42.6354C186.488 43.6465 186.694 44.0064 187.053 44.1777V44.2634H184.706C184.603 43.9378 184.568 43.7836 184.517 43.3209C184.517 43.2523 184.466 43.2009 184.414 43.1838C184.363 43.1666 184.294 43.1666 184.243 43.218C183.712 43.7493 182.975 44.4862 181.364 44.4862C180.13 44.4862 178.707 43.8178 178.707 41.9841C178.707 39.9105 180.301 39.3621 181.261 39.225L183.455 38.8994C184.277 38.7966 184.449 38.3681 184.449 38.0254C184.449 36.8086 183.215 36.8086 182.683 36.8086C181.467 36.8086 181.158 37.4941 181.055 38.0768H179.016C179.342 35.5576 181.192 35.2148 182.975 35.2148C183.797 35.2148 186.488 35.4034 186.488 37.6998ZM182.099 43.1017C183.247 43.1017 184.429 42.382 184.429 41.1481V39.9827C184.429 39.9313 184.395 39.8799 184.344 39.8456C184.275 39.8113 184.224 39.8285 184.172 39.8628C183.984 39.9999 183.658 40.1712 182.596 40.3255C181.687 40.4797 180.813 40.7196 180.813 41.8507C180.813 42.7076 181.448 43.1017 182.099 43.1017Z" fill="#1E1E1E"/>
<path d="M198.829 13.314C197.475 13.314 196.738 12.8685 196.67 11.9773H194.493C194.682 14.5308 197.544 14.805 198.777 14.805C199.686 14.805 202.668 14.5994 202.668 11.8402C202.668 9.93797 200.645 9.54381 199 9.2182C197.852 8.99541 196.875 8.78976 196.875 8.08712C196.875 7.38449 197.424 7.04174 198.52 7.04174C199.789 7.04174 200.148 7.60728 200.286 8.24136H202.359C202.154 6.42479 200.851 5.55078 198.383 5.55078C195.744 5.55078 194.802 7.04174 194.802 8.42987C194.802 10.3321 196.704 10.7092 198.383 11.0519C199.549 11.2747 200.543 11.4803 200.543 12.2173C200.543 12.3201 200.491 13.314 198.829 13.314Z" fill="#1E1E1E"/>
<rect x="188.238" y="17.3242" width="2.10791" height="1.90226" fill="#1E1E1E"/>
<path d="M214.801 40.6801C214.801 40.7658 214.733 40.8344 214.647 40.8344C214.596 40.8344 214.51 40.8001 214.476 40.7487L209.557 32.2656H207.055V44.2447H209.18V35.6417C209.18 35.556 209.249 35.4875 209.335 35.4875C209.386 35.4875 209.472 35.5217 209.506 35.5732L214.561 44.2618H216.926V32.2828H214.801V40.6801Z" fill="#1E1E1E"/>
<path fill-rule="evenodd" clip-rule="evenodd" d="M193.376 39.673C193.376 38.9361 193.581 35.2344 197.66 35.2344C199.22 35.2344 201.859 35.8685 201.842 40.0843V40.3413H195.655C195.604 40.3413 195.569 40.3756 195.535 40.4099C195.501 40.4442 195.501 40.4956 195.501 40.547C195.569 41.2668 195.741 42.912 197.832 42.912C198.483 42.912 199.237 42.6035 199.511 41.918H201.687C200.848 44.3172 198.534 44.5057 197.832 44.5057C194.867 44.5057 193.376 42.8777 193.376 39.673ZM199.492 39.126C199.543 39.126 199.578 39.1088 199.612 39.0746C199.646 39.0403 199.663 38.9889 199.663 38.9546C199.526 37.4465 198.515 36.8981 197.624 36.8981C196.459 36.8981 195.722 37.6179 195.567 38.9546C195.55 38.9889 195.567 39.0403 195.602 39.0746C195.636 39.1088 195.67 39.126 195.722 39.126H199.492Z" fill="#1E1E1E"/>
<path d="M190.497 36.9634C190.428 37.1005 190.154 37.0319 190.154 36.8948V35.4895H188.149V44.281H190.257V39.7053C190.257 38.1801 191.096 37.3747 192.673 37.3747C192.844 37.3747 193.033 37.3747 193.204 37.3918V35.2839C193.102 35.2667 192.999 35.2667 192.896 35.2667C191.542 35.2325 191.028 35.9865 190.497 36.9634Z" fill="#1E1E1E"/>
<path d="M266.587 38.9213C266.553 38.8527 266.553 38.7842 266.604 38.7327L269.62 35.4766H267.067L264.051 38.8698C263.999 38.9213 263.931 38.9384 263.879 38.9213C263.811 38.9041 263.776 38.8356 263.776 38.767V32.2891H261.669V44.2681H263.776V41.5604C263.776 41.5262 263.794 41.4747 263.828 41.4405L264.839 40.4122C264.873 40.3779 264.925 40.3608 264.976 40.3608C265.027 40.3608 265.079 40.3951 265.096 40.4465L267.255 44.2681H269.792L266.587 38.9213Z" fill="#1E1E1E"/>
<path fill-rule="evenodd" clip-rule="evenodd" d="M245.306 39.8786C245.306 36.4511 247.774 35.2344 249.882 35.2344C251.99 35.2344 254.458 36.4511 254.458 39.8786C254.458 43.289 251.99 44.5057 249.882 44.5057C247.774 44.5057 245.306 43.3061 245.306 39.8786ZM247.502 39.8602C247.502 41.7453 248.342 42.7907 249.884 42.7907C251.426 42.7907 252.266 41.7624 252.266 39.8602C252.266 37.9751 251.426 36.9297 249.884 36.9297C248.359 36.9297 247.502 37.9751 247.502 39.8602Z" fill="#1E1E1E"/>
<path d="M241.704 41.8782C241.686 41.9467 241.618 41.9981 241.549 41.9981C241.481 41.9981 241.378 41.9467 241.361 41.8782L239.99 35.4688H237.796L236.511 41.8782C236.494 41.9467 236.425 42.0153 236.357 42.0153C236.288 42.0153 236.185 41.9638 236.168 41.8953L234.746 35.4859H232.501L235.02 44.2774H237.282L238.704 37.7652C238.722 37.6966 238.79 37.6452 238.859 37.6452C238.927 37.6452 239.03 37.6966 239.047 37.7652L240.47 44.2774H242.732L245.302 35.4859H243.143L241.704 41.8782Z" fill="#1E1E1E"/>
<path fill-rule="evenodd" clip-rule="evenodd" d="M218.006 39.673C218.006 38.9361 218.211 35.2344 222.273 35.2344C223.832 35.2344 226.454 35.8685 226.472 40.1014V40.3585H220.285C220.234 40.3585 220.199 40.3927 220.165 40.427C220.131 40.4613 220.131 40.5127 220.131 40.5641C220.199 41.2668 220.371 42.912 222.461 42.912C223.13 42.912 223.884 42.6035 224.141 41.918H226.317C225.478 44.3172 223.164 44.5057 222.461 44.5057C219.497 44.5057 218.006 42.8777 218.006 39.673ZM224.106 39.126C224.157 39.126 224.192 39.1088 224.226 39.0746C224.26 39.0403 224.277 38.9889 224.277 38.9546C224.14 37.4465 223.129 36.8981 222.238 36.8981C221.056 36.8981 220.336 37.6179 220.182 38.9546C220.164 38.9889 220.182 39.0403 220.216 39.0746C220.25 39.1088 220.284 39.126 220.336 39.126H224.106Z" fill="#1E1E1E"/>
<path d="M257.987 36.9633C257.952 37.0147 257.901 37.049 257.85 37.049H257.815C257.73 37.049 257.661 36.9804 257.661 36.8948V35.4895H255.656V44.281H257.764V39.7053C257.764 38.1629 258.569 37.3746 260.163 37.3746C260.335 37.3746 260.523 37.3746 260.712 37.3917V35.2838C260.609 35.2667 260.506 35.2667 260.403 35.2667C259.032 35.2324 258.501 36.0208 257.987 36.9633Z" fill="#1E1E1E"/>
<path fill-rule="evenodd" clip-rule="evenodd" d="M211.114 28.4265C211.114 28.2723 210.857 28.2209 210.789 28.3408C210.138 29.4719 208.921 29.6433 208.252 29.6261C205.493 29.6261 204.516 27.1926 204.516 24.8962C204.516 21.5544 206.504 20.3719 208.201 20.3719C209.692 20.3719 210.377 21.1431 210.754 21.7258C210.789 21.76 210.874 21.7943 210.926 21.7943C211.012 21.7943 211.08 21.7258 211.08 21.6401V17.4414H213.188V29.4205H211.114V28.4265ZM208.94 22.1377C207.517 22.1377 206.712 23.2174 206.712 25.0854C206.712 26.165 207.157 27.9987 208.871 27.9987C210.568 27.9987 211.185 26.5592 211.185 25.2225C211.185 23.2003 210.414 22.1377 208.94 22.1377Z" fill="#1E1E1E"/>
<path d="M172.763 14.8905C175.539 14.8905 177.39 13.3996 177.99 10.6747H175.71C175.368 12.1485 174.322 12.9883 172.814 12.9883C170.775 12.9883 169.558 11.3602 169.558 8.63534C169.558 5.34495 171.237 4.1796 172.814 4.1796C174.973 4.1796 175.47 5.5506 175.693 6.30465H178.007C177.818 4.81369 176.533 2.27734 172.797 2.27734C169.352 2.27734 167.21 4.71086 167.21 8.60106C167.21 12.5427 169.284 14.8905 172.763 14.8905Z" fill="#1E1E1E"/>
<path d="M230 35.3175V33.0039H227.892V35.3175C227.892 35.4032 227.823 35.4717 227.738 35.4717H226.641V36.8598H227.738C227.823 36.8598 227.892 36.9284 227.892 37.0141V42.5323C227.892 43.492 228.063 44.3489 230.223 44.3489H230.531C230.822 44.3489 231.131 44.3489 231.508 44.3146V42.8237C231.388 42.8408 231.268 42.8408 231.165 42.8408C230.103 42.8408 230 42.5837 230 41.9497V37.0141C230 36.9284 230.068 36.8598 230.154 36.8598H231.508V35.4717H230.154C230.068 35.4717 230 35.4032 230 35.3175Z" fill="#1E1E1E"/>
<path d="M172.301 29.7319C173.09 29.7319 177.066 29.5434 177.066 25.8588C177.066 23.8709 175.815 23.1682 173.912 22.7055L170.862 21.9686C170.399 21.8658 169.422 21.6259 169.422 20.5291C169.422 19.3294 170.622 18.901 171.753 18.901C174.015 18.901 174.358 20.1692 174.444 20.7518H176.637C176.586 19.9635 176.089 17.1016 171.942 17.1016C167.64 17.1016 167.314 19.8778 167.314 20.7347C167.314 23.3053 169.182 23.7338 171.153 24.1965L172.49 24.5049C173.724 24.7963 174.872 25.0533 174.872 26.1844C174.872 26.9899 174.392 27.9324 172.096 27.9324C169.799 27.9324 169.371 26.6471 169.302 25.9445H167.126C167.177 27.2127 167.829 29.7319 172.301 29.7319Z" fill="#1E1E1E"/>
<path d="M177.99 40.37H175.71C175.368 41.8438 174.322 42.6836 172.814 42.6836C170.775 42.6836 169.558 41.0555 169.558 38.3307C169.558 35.0403 171.237 33.8749 172.814 33.8749C174.973 33.8749 175.47 35.2288 175.693 36H178.007C177.818 34.509 176.533 31.9727 172.797 31.9727C169.352 31.9727 167.21 34.389 167.21 38.2964C167.21 42.238 169.284 44.5858 172.763 44.5858C175.539 44.5858 177.39 43.0777 177.99 40.37Z" fill="#1E1E1E"/>
<rect x="201.106" y="17.4414" width="2.10791" height="11.9791" fill="#1E1E1E"/>
<path d="M181.418 9.96985C181.418 8.42748 182.224 7.63916 183.817 7.63916C183.989 7.63916 184.177 7.63916 184.349 7.65629V5.54839C184.229 5.53125 184.143 5.53125 184.04 5.53125C182.686 5.53125 182.172 6.2853 181.641 7.26213C181.607 7.31355 181.555 7.34782 181.504 7.34782C181.418 7.34782 181.298 7.27927 181.298 7.19358V5.77117H179.293V14.5627H181.401V9.96985H181.418Z" fill="#1E1E1E"/>
<rect x="140.954" y="32.2891" width="2.10791" height="11.9791" fill="#1E1E1E"/>
<path d="M150.808 40.5586C150.808 42.2038 149.763 42.7864 148.769 42.7864C147.621 42.7864 147.021 42.1524 147.021 40.9527V35.4688H144.913V41.2955C144.913 43.352 145.976 44.5002 147.895 44.5002C149.112 44.5002 150.037 44.0032 150.568 43.0606C150.637 42.9407 150.894 42.9921 150.894 43.1463V44.2774H152.899V35.4859H150.808V40.5586Z" fill="#1E1E1E"/>
<path d="M150.808 10.8633C150.808 12.5085 149.763 13.0911 148.769 13.0911C147.621 13.0911 147.021 12.457 147.021 11.2574V5.77344H144.913V11.6002C144.913 13.6567 145.976 14.8049 147.895 14.8049C149.112 14.8049 150.037 14.3079 150.568 13.3653C150.637 13.2454 150.894 13.2968 150.894 13.451V14.5821H152.899V5.77344H150.808V10.8633Z" fill="#1E1E1E"/>
<rect x="140.954" y="17.4414" width="2.10791" height="11.9791" fill="#1E1E1E"/>
<path d="M150.808 25.7226C150.808 27.3678 149.763 27.9505 148.769 27.9505C147.621 27.9505 147.021 27.3164 147.021 26.1168V20.6328H144.913V26.4595C144.913 28.516 145.976 29.6471 147.895 29.6471C149.112 29.6471 150.037 29.1501 150.568 28.2076C150.637 28.0876 150.894 28.139 150.894 28.2933V29.4243H152.899V20.6328H150.808V25.7226Z" fill="#1E1E1E"/>
<path fill-rule="evenodd" clip-rule="evenodd" d="M137.492 8.2413C137.423 8.22416 137.389 8.15561 137.389 8.1042C137.389 8.03565 137.423 7.98424 137.475 7.94996C137.972 7.71004 138.914 7.24733 138.914 5.58499C138.914 4.14545 137.954 2.58594 135.23 2.58594H129.317V14.565H134.441C136.978 14.565 137.595 14.1366 138.28 13.5025C138.931 12.8684 139.308 11.9944 139.308 11.0861C139.325 9.62943 138.726 8.70401 137.492 8.2413ZM131.528 4.56185C131.528 4.47616 131.597 4.40761 131.683 4.40761H134.665C135.556 4.40761 136.738 4.56185 136.738 5.88143C136.738 6.85826 136.001 7.40666 134.733 7.40666H131.683C131.597 7.40666 131.528 7.33811 131.528 7.25243V4.56185ZM131.683 12.766H134.87C136.293 12.766 137.047 12.0805 137.047 10.8123C137.047 9.59556 136.001 9.16712 135.007 9.16712H131.683C131.597 9.16712 131.528 9.23567 131.528 9.32136V12.6117C131.528 12.6974 131.597 12.766 131.683 12.766Z" fill="#1E1E1E"/>
<path fill-rule="evenodd" clip-rule="evenodd" d="M137.492 23.0968C137.423 23.0796 137.389 23.0111 137.389 22.9597C137.389 22.8911 137.423 22.8397 137.475 22.8054C137.972 22.5655 138.914 22.1028 138.914 20.4233C138.914 19.9263 138.743 17.4414 135.23 17.4414H129.317V29.4205H134.441C136.978 29.4205 137.595 28.9921 138.28 28.3408C138.931 27.7239 139.308 26.8327 139.308 25.9244C139.325 24.4678 138.726 23.5423 137.492 23.0968ZM131.528 19.3963C131.528 19.3106 131.597 19.242 131.683 19.242H134.665C135.556 19.242 136.738 19.3963 136.738 20.7158C136.738 21.6927 136.001 22.2411 134.733 22.2411H131.683C131.597 22.2411 131.528 22.1725 131.528 22.0868V19.3963ZM131.683 27.6004H134.87C136.293 27.6004 137.047 26.9149 137.047 25.6467C137.047 24.43 135.95 24.0015 135.007 24.0015H131.683C131.597 24.0015 131.528 24.0701 131.528 24.1558V27.4462C131.528 27.5318 131.597 27.6004 131.683 27.6004Z" fill="#1E1E1E"/>
<rect x="140.954" y="2.58203" width="2.10791" height="11.9791" fill="#1E1E1E"/>
<path fill-rule="evenodd" clip-rule="evenodd" d="M137.492 37.9351C137.423 37.918 137.389 37.8494 137.389 37.798C137.389 37.7294 137.423 37.678 137.475 37.6438C137.972 37.4038 138.914 36.9411 138.914 35.2788C138.914 34.7818 138.743 32.2969 135.23 32.2969H129.317V44.276H134.441C136.978 44.276 137.612 43.8475 138.28 43.2134C138.931 42.5793 139.308 41.7053 139.308 40.7971C139.325 39.3232 138.726 38.3978 137.492 37.9351ZM131.528 34.2307C131.528 34.145 131.597 34.0764 131.683 34.0764H134.665C135.556 34.0764 136.738 34.2307 136.738 35.5502C136.738 36.5099 135.984 37.0755 134.733 37.0755H131.683C131.597 37.0755 131.528 37.0069 131.528 36.9212V34.2307ZM131.683 42.4453H134.87C136.293 42.4453 137.047 41.777 137.047 40.4917C137.047 39.2749 135.95 38.8465 135.007 38.8465H131.683C131.597 38.8465 131.528 38.915 131.528 39.0007V42.2911C131.528 42.3768 131.597 42.4453 131.683 42.4453Z" fill="#1E1E1E"/>
<path d="M211.492 11.8207C211.492 9.91844 209.469 9.52428 207.824 9.19867C206.676 8.97588 205.699 8.77023 205.699 8.06759C205.699 7.36496 206.248 7.02221 207.362 7.02221C208.63 7.02221 208.99 7.58774 209.127 8.22183H211.2C210.995 6.40526 209.692 5.53125 207.224 5.53125C204.585 5.53125 203.643 7.02221 203.643 8.41034C203.643 10.3126 205.545 10.6896 207.224 11.0324C208.373 11.2552 209.384 11.4608 209.384 12.1977C209.384 12.3177 209.332 13.2945 207.67 13.2945C206.299 13.2945 205.579 12.8489 205.494 11.9578H203.317C203.506 14.5113 206.368 14.7855 207.602 14.7855C208.527 14.8026 211.492 14.5798 211.492 11.8207Z" fill="#1E1E1E"/>
<path fill-rule="evenodd" clip-rule="evenodd" d="M153.995 24.8175C153.995 23.7721 154.303 20.3789 158.262 20.3789C159.822 20.3789 162.444 21.013 162.461 25.2117V25.4859H156.274C156.223 25.4859 156.189 25.5201 156.154 25.5544C156.12 25.5887 156.12 25.6401 156.12 25.6915C156.189 26.3942 156.36 28.0393 158.451 28.0393C159.102 28.0393 159.856 27.7309 160.13 27.0454H162.29C161.45 29.4446 159.136 29.6331 158.434 29.6331C155.486 29.6331 153.995 28.0222 153.995 24.8175ZM160.095 24.2705C160.147 24.2705 160.181 24.2534 160.215 24.2191C160.25 24.1848 160.267 24.1505 160.267 24.0991C160.113 22.591 159.119 22.0426 158.227 22.0426C157.045 22.0426 156.325 22.7624 156.171 24.0991C156.154 24.1334 156.171 24.1848 156.205 24.2191C156.239 24.2534 156.274 24.2705 156.325 24.2705H160.095Z" fill="#1E1E1E"/>
<path fill-rule="evenodd" clip-rule="evenodd" d="M153.995 39.673C153.995 38.6447 154.303 35.2344 158.262 35.2344C159.822 35.2344 162.444 35.8685 162.461 40.1014V40.3585H156.274C156.223 40.3585 156.189 40.3927 156.154 40.427C156.12 40.4613 156.12 40.5127 156.12 40.5641C156.189 41.2668 156.36 42.912 158.451 42.912C159.102 42.912 159.856 42.6035 160.13 41.918H162.29C161.45 44.3172 159.136 44.5057 158.434 44.5057C155.486 44.5057 153.995 42.8777 153.995 39.673ZM160.095 39.126C160.147 39.126 160.181 39.1088 160.215 39.0746C160.25 39.0403 160.267 38.9889 160.267 38.9546C160.113 37.4465 159.119 36.8981 158.227 36.8981C157.045 36.8981 156.325 37.6179 156.171 38.9546C156.154 38.9889 156.171 39.0403 156.205 39.0746C156.239 39.1088 156.274 39.126 156.325 39.126H160.095Z" fill="#1E1E1E"/>
<path fill-rule="evenodd" clip-rule="evenodd" d="M153.995 9.96595C153.995 8.92056 154.303 5.52734 158.262 5.52734C159.822 5.52734 162.444 6.16143 162.444 10.3944V10.6514H156.257C156.206 10.6514 156.171 10.6857 156.137 10.72C156.103 10.7543 156.103 10.8057 156.103 10.8571C156.171 11.5426 156.343 13.1878 158.434 13.1878C159.085 13.1878 159.839 12.8793 160.113 12.1938H162.29C161.45 14.5931 159.136 14.7816 158.434 14.7816C155.486 14.7816 153.995 13.1706 153.995 9.96595ZM160.095 9.41894C160.147 9.41894 160.181 9.4018 160.215 9.36752C160.25 9.33325 160.267 9.28184 160.267 9.24756C160.113 7.73947 159.119 7.19107 158.227 7.19107C157.028 7.19107 156.325 7.8937 156.171 9.24756C156.154 9.28184 156.171 9.33325 156.205 9.36752C156.239 9.4018 156.274 9.41894 156.325 9.41894H160.095Z" fill="#1E1E1E"/>
<path fill-rule="evenodd" clip-rule="evenodd" d="M129.317 56.0032C129.317 54.3066 130.277 52.5586 132.385 52.5586C134.493 52.5586 135.452 54.3238 135.452 56.0032C135.452 57.6827 134.493 59.4307 132.385 59.4307C130.277 59.4307 129.317 57.6827 129.317 56.0032ZM130.465 56.0084C130.465 56.8824 130.791 58.4933 132.384 58.4933C133.978 58.4933 134.304 56.8824 134.304 56.0084C134.304 55.1343 133.978 53.5063 132.384 53.5063C130.791 53.5063 130.465 55.1343 130.465 56.0084Z" fill="#1E1E1E"/>
<path d="M136.982 51.6388V52.7527H136.073V53.661H136.982V59.2649H138.095V53.661H139.209V52.7527H138.095V51.9472C138.095 51.4331 138.267 51.1932 138.747 51.1932C138.884 51.1932 139.072 51.2103 139.209 51.2103V50.2164C139.038 50.1992 138.867 50.1992 138.712 50.1992C137.616 50.1992 136.982 50.6619 136.982 51.6388Z" fill="#1E1E1E"/>
<path d="M148.22 57.8936H148.202L145.615 50.3359H143.85V59.2646H145.032V53.9862C145.032 53.7292 145.015 52.5981 145.015 51.7755H145.032L147.586 59.2646H148.802L151.356 51.7583H151.39C151.39 52.5981 151.356 53.7292 151.356 53.9862V59.2646H152.538V50.3359H150.807L148.22 57.8936Z" fill="#1E1E1E"/>
<rect x="154.306" y="52.7461" width="1.11393" height="6.51223" fill="#1E1E1E"/>
<rect x="154.306" y="50.3359" width="1.11393" height="1.25103" fill="#1E1E1E"/>
<path d="M159.653 53.5526C160.596 53.5526 161.075 54.0667 161.23 54.9407H162.309C162.224 53.8096 161.555 52.5586 159.824 52.5586C157.631 52.5586 156.654 54.1695 156.654 56.1746C156.654 58.0597 157.751 59.4307 159.619 59.4307C161.555 59.4307 162.206 57.974 162.309 56.9458H161.23C161.041 57.9398 160.39 58.4882 159.653 58.4882C158.128 58.4882 157.836 57.1 157.836 55.9861C157.836 54.855 158.282 53.5526 159.653 53.5526Z" fill="#1E1E1E"/>
<path d="M166.487 52.5614C165.424 52.5614 164.859 53.2126 164.55 53.6239H164.533V50.3164H163.419V59.245H164.533V55.6976C164.533 54.0524 165.476 53.5211 166.384 53.5211C167.447 53.5211 167.704 54.1038 167.704 54.9778V59.2279H168.818V54.8064C168.801 52.9727 167.515 52.5614 166.487 52.5614Z" fill="#1E1E1E"/>
<rect x="170.464" y="52.7461" width="1.11393" height="6.51223" fill="#1E1E1E"/>
<rect x="170.464" y="50.3359" width="1.11393" height="1.25103" fill="#1E1E1E"/>
<path fill-rule="evenodd" clip-rule="evenodd" d="M177.681 53.6822C177.402 53.2821 176.885 52.5586 175.693 52.5586C173.945 52.5586 172.934 53.981 172.934 55.8147C172.934 57.3742 173.585 59.4479 175.847 59.4479C176.738 59.4479 177.321 59.0537 177.629 58.5224V58.7966C177.629 58.8097 177.629 58.823 177.629 58.8365C177.63 59.6192 177.631 61.093 175.744 61.093C175.47 61.093 174.459 61.093 174.253 60.0648H173.139C173.345 61.7957 174.887 62.0013 175.658 62.0013C178.726 62.0013 178.743 59.6535 178.743 58.7281V52.7471H177.681V53.6822ZM174.097 55.9885C174.097 57.4281 174.663 58.5077 175.879 58.5077C176.582 58.5077 177.679 58.045 177.696 56.297C177.696 55.2516 177.507 53.5379 175.914 53.5379C174.183 53.5379 174.097 55.1488 174.097 55.9885Z" fill="#1E1E1E"/>
<path fill-rule="evenodd" clip-rule="evenodd" d="M185.442 54.3752V58.1283C185.442 58.4025 185.579 58.5224 185.836 58.5224C185.905 58.5224 185.988 58.5072 186.072 58.492C186.114 58.4843 186.156 58.4767 186.196 58.471V59.2593C186.155 59.2705 186.116 59.2824 186.077 59.2943C185.936 59.3372 185.798 59.3793 185.596 59.3793C184.602 59.3793 184.448 58.8823 184.414 58.3853C183.985 58.848 183.3 59.4479 182.014 59.4479C180.798 59.4479 179.941 58.6767 179.941 57.5627C179.941 57.0143 180.095 55.7462 181.946 55.5234L183.78 55.3006C184.037 55.2834 184.362 55.1806 184.362 54.5294C184.362 53.8439 183.848 53.4669 182.803 53.4669C181.535 53.4669 181.363 54.2209 181.278 54.7179H180.266C180.318 53.1755 181.363 52.5586 182.991 52.5586C183.523 52.5586 185.442 52.7128 185.442 54.3752ZM182.273 58.5541C183.318 58.5541 184.329 57.8858 184.329 57.0117H184.312V55.9492C184.141 56.0863 183.849 56.1891 182.478 56.3605C181.947 56.4462 181.073 56.6004 181.073 57.423C181.073 58.1257 181.433 58.5541 182.273 58.5541Z" fill="#1E1E1E"/>
<path d="M190.396 52.5586C189.248 52.5586 188.631 53.3126 188.391 53.6725H188.374V52.7471H187.312V59.2593H188.426V55.7119C188.426 53.9467 189.54 53.5354 190.174 53.5354C191.253 53.5354 191.596 54.1181 191.596 55.2492V59.2593H192.71V54.8379C192.71 52.9699 191.425 52.5586 190.396 52.5586Z" fill="#1E1E1E"/>
<defs>
<clipPath id="clip0_13692_1821222">
<rect width="245.275" height="60.1901" fill="white" transform="translate(0.208313)"/>
</clipPath>
</defs>
</svg>
