<svg version="1.1" id="Layer_1" xmlns:x="ns_extend;" xmlns:i="ns_ai;" xmlns:graph="ns_graphs;" xmlns="http://www.w3.org/2000/svg" xmlns:xlink="http://www.w3.org/1999/xlink" x="0px" y="0px" viewBox="0 0 396 95.9" style="enable-background:new 0 0 396 95.9;" xml:space="preserve">
 <style type="text/css">
  .st0{fill:#00598C;}
	.st1{fill-rule:evenodd;clip-rule:evenodd;fill:#00598C;}
	.st2{fill:#00467F;}
	.st3{fill:#9E9B98;}
 </style>
 <metadata>
  <sfw xmlns="ns_sfw;">
   <slices>
   </slices>
   <sliceSourceBounds bottomLeftOrigin="true" height="95.9" width="396" x="-134.7" y="-214.9">
   </sliceSourceBounds>
  </sfw>
 </metadata>
 <g>
  <polygon class="st0" points="57.2,56.2 57.2,2.9 99.4,2.9 99.4,14.8 73.9,14.8 73.9,23.2 95.6,23.2 95.6,35.1 73.9,35.1 73.9,43.8 
		99.4,43.8 99.4,56.2 	">
  </polygon>
  <polygon class="st0" points="134.7,56.2 118.3,28 118.3,56.2 102.6,56.2 102.6,2.8 118.3,2.8 136.3,31.2 136.3,2.8 152.5,2.8 
		152.5,56.2 	">
  </polygon>
  <path class="st0" d="M351.3,12.1V4.6h3.3c0.7,0,1.2,0.1,1.5,0.2c0.4,0.1,0.6,0.4,0.8,0.7c0.2,0.3,0.3,0.7,0.3,1.1
		c0,0.5-0.2,1-0.5,1.3c-0.3,0.4-0.9,0.6-1.6,0.7c0.3,0.1,0.5,0.3,0.6,0.4c0.3,0.3,0.6,0.6,0.8,1l1.3,2h-1.2l-1-1.6
		c-0.3-0.4-0.5-0.8-0.7-1c-0.2-0.2-0.4-0.4-0.5-0.5c-0.1-0.1-0.3-0.2-0.5-0.2c-0.1,0-0.3,0-0.6,0h-1.1v3.3H351.3z M352.3,7.9h2.1
		c0.5,0,0.8,0,1.1-0.1c0.3-0.1,0.4-0.2,0.6-0.5c0.1-0.2,0.2-0.4,0.2-0.7c0-0.4-0.1-0.6-0.4-0.9c-0.3-0.2-0.7-0.3-1.2-0.3h-2.4V7.9z">
  </path>
  <path class="st0" d="M354.3,14.7c-3.4,0-6.2-2.8-6.2-6.2c0-3.4,2.8-6.2,6.2-6.2c3.4,0,6.2,2.8,6.2,6.2
		C360.4,11.9,357.7,14.7,354.3,14.7 M354.3,3.4c-2.8,0-5.2,2.3-5.2,5.2c0,2.8,2.3,5.1,5.2,5.1c2.8,0,5.1-2.3,5.1-5.1
		C359.4,5.7,357.1,3.4,354.3,3.4">
  </path>
  <polygon class="st0" points="281.6,56.2 265.2,28 265.2,56.2 249.5,56.2 249.5,2.8 265.2,2.8 283.2,31.2 283.2,2.8 299.4,2.8 
		299.4,56.2 	">
  </polygon>
  <polygon class="st0" points="204.6,56.2 204.6,2.9 246.8,2.9 246.8,14.8 221.3,14.8 221.3,23.2 243,23.2 243,35.1 221.3,35.1 
		221.3,43.8 246.8,43.8 246.8,56.2 	">
  </polygon>
  <path class="st1" d="M54.3,23.3C52.9,9.4,43.6,0,27,0C11.9,0,0,10.9,0,28.5c0,17.6,10.8,28.6,28.8,28.6c14.3,0,24.3-8.4,25.9-22.5
		H37.6c-0.7,5.2-3.4,9.2-9.1,9.2c-9,0-10.7-7.2-10.7-14.8c0-10.5,3.8-15.8,10-15.8c5.6,0,9.1,4.4,9.6,10.1H54.3z">
  </path>
  <path class="st0" d="M202.4,2.8H155v13.5h15v37v16.5h0v0c0.7-3.4,2.3-6.6,4.8-9.3c3.4-3.7,7.4-5.4,12.5-5.4v0c0,0,0.1,0,0.1,0v-1.8
		v-37l14.9,0L202.4,2.8z">
  </path>
  <path class="st2" d="M186.6,57.3c-6.4,0-11.7,5.3-13,12.4h13.9V57.4c0,0-0.1,0-0.1,0C187.1,57.4,186.9,57.3,186.6,57.3">
  </path>
  <path class="st0" d="M344.5,56.2c0,0-42.2,0-42.2,0V2.9h42.2v11.9H319v8.4h21.7v11.9H319v8.7h25.5
		C344.5,43.8,344.5,55.3,344.5,56.2">
  </path>
  <path class="st3" d="M216.1,73.7c0,6.9-5.2,12.7-11.3,12.7c-5.2,0-8.8-3.8-8.8-9.6c0-7.2,5.1-12.6,11.9-12.6
		C212.6,64.2,216.1,68.2,216.1,73.7 M199.1,77.3c0,4.2,2.3,6.9,5.9,6.9c4.5,0,8-4.7,8-10.9c0-4.2-2.1-6.9-5.5-6.9
		C202.7,66.4,199.1,71.1,199.1,77.3">
  </path>
  <path class="st3" d="M234.1,68.7h-0.8c-0.3-1.4-1-2-2.3-2c-0.8,0-1.7,0.3-2.6,1c-0.6,0.4-1.1,1-1.5,1.6c-0.6,1-0.8,1.6-1.3,4
		l-2.5,12.8H220l3.4-17.4l0.2-0.9c0-0.2,0.1-0.6,0.1-0.8c0-1-0.4-1.3-1.5-1.3h-0.3l0.2-0.9l5.4-0.6l-0.9,4.5
		c1.4-2.8,3.7-4.5,6.2-4.5c0.8,0,1.6,0.2,2.5,0.6L234.1,68.7z">
  </path>
  <path class="st3" d="M237.9,92.6c-0.1,0.7-0.2,1.1-0.2,1.3c0,0.8,0.2,0.9,1.4,1.3l-0.2,0.7h-6.5l0.1-0.7c0.4,0,0.6-0.1,0.9-0.2
		c0.7-0.3,0.9-0.6,1.1-1.8l4.8-24.5l0.2-0.9c0.1-0.3,0.1-0.6,0.1-0.8c0-1-0.3-1.3-1.5-1.3h-0.3l0.2-0.9l5.4-0.6l-0.7,3.4
		c0.7-0.8,1-1.1,1.5-1.6c1.4-1.1,3.6-1.8,5.4-1.8c4.3,0,7.4,3.4,7.4,8.2c0,8.1-6.5,14-15.5,14c-1,0-1.4,0-2.4-0.2L237.9,92.6z
		 M239.9,84.2c0.6,0,1.2,0,1.7,0c7.5,0,12.1-4.4,12.1-11.5c0-3.9-2-6.4-5.3-6.4c-2.3,0-4.3,1.3-6.1,3.7l-2.8,14.1H239.9z">
  </path>
  <path class="st3" d="M280.8,73.7c0,6.9-5.2,12.7-11.3,12.7c-5.2,0-8.8-3.8-8.8-9.6c0-7.2,5.1-12.6,11.9-12.6
		C277.3,64.2,280.8,68.2,280.8,73.7 M263.8,77.3c0,4.2,2.3,6.9,5.9,6.9c4.5,0,8-4.7,8-10.9c0-4.2-2.1-6.9-5.5-6.9
		C267.4,66.4,263.8,71.1,263.8,77.3">
  </path>
  <path class="st3" d="M298.9,68.7h-0.8c-0.3-1.4-1-2-2.3-2c-0.8,0-1.7,0.3-2.6,1c-0.6,0.4-1.1,1-1.5,1.6c-0.6,1-0.9,1.6-1.3,4
		l-2.5,12.8h-3.2l3.4-17.4l0.2-0.9c0-0.2,0.1-0.6,0.1-0.8c0-1-0.4-1.3-1.5-1.3h-0.3l0.2-0.9l5.4-0.6l-0.9,4.5
		c1.4-2.8,3.7-4.5,6.2-4.5c0.8,0,1.6,0.2,2.5,0.6L298.9,68.7z">
  </path>
  <path class="st3" d="M304.1,65.9c2.4-1.2,4.7-1.7,7.5-1.7c4.4,0,6.8,1.6,6.8,4.4c0,0.6-0.1,1.1-0.2,1.8l-2,10.4
		c-0.2,0.9-0.3,1.3-0.3,1.8c0,1,0.6,1.7,1.4,1.7c0.6,0,1.1-0.2,2.3-1.2l0.7,0.8c-1.6,1.7-3.1,2.6-4.5,2.6c-2,0-3.2-1.3-3.2-3.7
		c-2.1,2.4-4.8,3.7-7.8,3.7c-3.3,0-5.6-2.2-5.6-5.2c0-5.6,6-9.6,15.7-10.2c0.2-1,0.2-1.3,0.2-1.6c0-1.9-1.8-3.1-4.7-3.1
		c-1.1,0-2.2,0.2-3.2,0.6c-1.4,0.6-2,1.1-3.1,2.5h-0.8L304.1,65.9z M310.3,73.7c-4.9,1.3-7.7,3.8-7.7,6.9c0,1.8,1.5,3.2,3.4,3.2
		c2.6,0,5.3-1.4,7.2-3.7l1.4-7.1C312.1,73.3,311.5,73.4,310.3,73.7">
  </path>
  <path class="st3" d="M331.6,64.5h4.3l-0.3,1.5h-4.3l-2.7,13.7c-0.2,1-0.3,2-0.3,2.6c0,1.2,0.8,2,2.1,2c1.6,0,2.7-0.7,3.5-2.2h0.7
		l-0.7,3.5c-1.7,0.6-2.6,0.8-4.2,0.8c-3.1,0-4.6-1.3-4.6-3.8c0-0.7,0.1-1.4,0.3-2.7l2.7-13.9h-2.5l0.3-1.5c1.1,0,1.3-0.1,1.9-0.3
		c0.7-0.3,1.2-1.3,1.6-3l0.6-3l3-0.8L331.6,64.5z">
  </path>
  <path class="st3" d="M370,73.7c0,6.9-5.2,12.7-11.3,12.7c-5.2,0-8.8-3.8-8.8-9.6c0-7.2,5.1-12.6,11.9-12.6
		C366.5,64.2,370,68.2,370,73.7 M353,77.3c0,4.2,2.3,6.9,5.9,6.9c4.5,0,8-4.7,8-10.9c0-4.2-2.1-6.9-5.5-6.9
		C356.6,66.4,353,71.1,353,77.3">
  </path>
  <path class="st3" d="M380.7,67.4c2.4-2.2,4.8-3.2,7.6-3.2c3.5,0,5.8,2,5.8,5c0,0.6-0.2,1.7-0.5,3.4l-1.4,7.5
		c-0.3,1.4-0.4,2.4-0.4,2.8c0,0.8,0.6,1.4,1.4,1.4c0.6,0,1.2-0.3,2.3-1.1l0.6,0.8c-0.6,0.7-0.9,1-1.4,1.3c-1,0.7-2.3,1.2-3.4,1.2
		c-1.7,0-2.8-1.3-2.8-3.1c0-0.5,0.1-1.4,0.3-2.2l1.7-9c0.2-1.1,0.3-1.9,0.3-2.4c0-2-1.6-3.5-3.9-3.5c-1.4,0-2.9,0.6-4.3,1.7
		c-0.9,0.7-1.4,1.2-2.5,2.6l-3,15.5h-3.2l3.5-17.4l0.2-0.9c0-0.2,0.1-0.6,0.1-0.8c0-1-0.4-1.3-1.5-1.3h-0.3l0.2-0.9l5.4-0.6
		L380.7,67.4z">
  </path>
  <path class="st3" d="M342.5,79.7l-0.3,1.7c-0.1,0.3-0.1,0.6-0.1,0.9c0,1.2,0.5,1.9,1.4,1.9c0.5,0,1.1-0.3,2.2-1.1l0.6,0.7
		c-1.4,1.6-3.2,2.6-4.6,2.6c-1.7,0-2.8-1.3-2.8-3.3c0-0.6,0-1,0.4-2.9l2.3-11.6l0.2-0.9c0.1-0.3,0.1-0.6,0.1-0.8
		c0-1-0.3-1.3-1.5-1.3h-0.3l0.2-0.9l5.4-0.6L342.5,79.7z">
  </path>
  <path class="st3" d="M185,84.9c-6.9,0-11.7-5-11.7-12c0-1.1,0.1-2.2,0.3-3.2h0c1.3-7,6.7-12.4,13-12.4c0.3,0,0.5,0,0.7,0
		c0,0,0.1,0,0.1,0c3,0.3,5,1.8,5,4c0,0.6-0.1,0.9-0.6,1.4l0.6,0.6l3.8-3.8c-2-3.2-4.7-4.6-8.8-4.6c0,0-0.1,0-0.1,0v0
		c-5.1,0-9,1.7-12.5,5.4c-2.5,2.7-4.2,5.8-4.8,9.3v0h0v0h0c-0.2,1.1-0.3,2.2-0.3,3.4c0,4.7,1.7,8.6,5,11.1c2.6,2.1,5.6,3,10,3
		c2.9,0,4.6-0.3,7.1-1.3l0.8-4.3h-0.8C190.8,83.8,188.5,84.9,185,84.9">
  </path>
  <path class="st3" d="M346.7,56.1c0,1.7-1.4,3.2-3,3.2c-1.1,0-2-0.9-2-2.1c0-1.7,1.5-3.2,3-3.2C346,54,346.7,54.8,346.7,56.1">
  </path>
 </g>
</svg>