<svg version="1.1" id="Layer_1" xmlns:x="ns_extend;" xmlns:i="ns_ai;" xmlns:graph="ns_graphs;" xmlns="http://www.w3.org/2000/svg" xmlns:xlink="http://www.w3.org/1999/xlink" x="0px" y="0px" viewBox="0 0 354.3 102" style="enable-background:new 0 0 354.3 102;" xml:space="preserve">
 <style type="text/css">
  .st0{fill:#595959;}
	.st1{fill:#3A60FF;}
 </style>
 <metadata>
  <sfw xmlns="ns_sfw;">
   <slices>
   </slices>
   <sliceSourceBounds bottomLeftOrigin="true" height="102" width="354.3" x="22.9" y="-251.2">
   </sliceSourceBounds>
  </sfw>
 </metadata>
 <g>
  <g>
   <path class="st0" d="M335.3,62.6c-11.4,0-19.5,8.2-19.5,19.5c0,12,8.2,19.7,19.8,19.7c5.9,0,12.4-2.2,16.2-6.7h0.1l-4.2-3.8
			c-2.5,3-7.7,4.7-12,4.7c-7.2,0-13-4.3-13.6-11.3h32C355.6,69.7,346.8,62.6,335.3,62.6 M348.2,79.5
			C348.2,79.5,348.2,79.5,348.2,79.5l-26.1-0.1c1.1-7.2,6.8-11.2,13.3-11.2C342.9,68.2,347.9,72.2,348.2,79.5L348.2,79.5L348.2,79.5
			z M294.4,63.4l0.5,5.6c2.6-4.9,7.2-6.2,11.6-6.2c3.3-0.1,6.5,1.1,8.8,2.8l-2.8,5.3c-2-1.4-4-2.1-6.6-2.1
			c-6,0.1-11.1,4.3-11.1,11.3v21h-6.2V63.4L294.4,63.4L294.4,63.4z M261.7,62.7c-4.6,0-9.1,1.2-13.5,3.2l1.1,5.3
			c3.2-1.5,8.2-2.8,12.3-2.8c6.2,0,12.2,2.1,12.2,9v3c-3.8-2.1-8.8-3.1-13.3-3.1c-7.6-0.1-15.1,3.6-15.1,12
			c0,8.8,7.4,12.5,14.9,12.5c5.3,0,10.7-2.1,13.9-6.6l0.1,0.1l0.3,5.9h5.3V77.4C279.9,66.3,271.7,62.7,261.7,62.7 M261.3,96.3
			c-4.3,0-9.7-1.8-9.7-6.9c0-5.1,5-6.9,9.8-6.9c3.8,0,9.1,1.2,12.5,3.2C273.7,92.1,267.7,96.3,261.3,96.3 M214.1,82.3
			c0,8.5,5.9,13.9,13.4,13.9c4.3,0,7.4-1.1,11-3.8l3.2,4.5c-4,3.2-8.5,4.9-14.2,4.9c-11.5,0-19.7-7.5-19.7-19.5s9.1-19.5,19.7-19.5
			c5,0,10.4,1.3,14,4.3l-3.3,5.1c-3.6-2.7-6.5-3.6-10.7-3.6C220,68.5,214.1,73.8,214.1,82.3 M154.2,63.4h5.7l0.3,6
			c3.3-4.5,7.9-6.6,12.9-6.6c9.5,0,16.5,6.4,16.5,17.5v20.8h-6.2V80.4c0-7.2-4.3-11.7-11.4-11.7c-6.9,0.1-11.6,5.5-11.6,12.3v20.2
			h-6.2V63.4L154.2,63.4z M127.6,62.6c-11.2,0-19.5,8.1-19.5,19.7c0,11.4,8.2,19.4,19.5,19.4c11.4,0,19.6-8,19.6-19.4
			C147.2,70.7,139.1,62.6,127.6,62.6 M127.6,95.9c-7.7,0-13.3-5.6-13.3-13.6c0-8.4,5.6-14,13.3-14c7.5,0,13.3,5.6,13.3,14
			C141,90.3,135.4,95.9,127.6,95.9 M95.1,63.3h6.3v37.8h-6.3V63.3z M102.5,54c0,5.4-8.2,5.4-8.2-0.1C94.2,48.5,102.5,48.5,102.5,54
			 M84.4,70.6c-3.5-1.8-7.2-2.6-10.9-2.6c-6.8,0-9.7,2.5-9.7,5.4c0,3.1,2.7,4.8,10.2,5.8c10.7,1.5,14.9,4.8,14.9,11.5
			c0,7.5-7.2,11.3-16.2,11.3c-6.6,0-12.9-1.5-16.7-4.8l3.4-4.9c3.7,3,8.6,4.2,13.4,4.2c6.2,0,10.2-1.9,10.2-5.7
			c0-3.3-2-5.1-10.1-6.3c-10.4-1.5-15-4.5-15-11c0-6.2,5.8-11.1,15.9-11.1c4.1,0,9.2,0.7,13.4,2.9L84.4,70.6z M44,63.3h6.3v37.8H44
			V63.3z M51.3,54c0,5.4-8.2,5.4-8.2-0.1C43,48.5,51.3,48.5,51.3,54 M6.9,63.4L13,78.1l6.4,16.3l6.3-16.2l6.1-14.8h6.9l-15.9,37.7
			h-6.9L0,63.4H6.9z">
   </path>
   <path class="st1" d="M118.4,34.4h0.8l0-2.5l1.2,1.6h0.2c0.2-0.2,1.1-1.3,1.3-1.5l0,2.4h0.8v-3.7h-0.8l-1.4,1.7l-1.4-1.7h-0.8V34.4
			z M115.5,34.4h0.8v-3h1.4v-0.7h-3.5v0.7h1.4V34.4z">
   </path>
   <path class="st1" d="M99.7,0.6c-4,0-7.8,1.5-10,4.8l-0.1-0.9c-0.3-1.9-1.7-3.2-4.2-3.2h-8.8V45h9.9c2.5,0,3.8-1.6,3.8-3.8V32
			c2.3,2.4,6,3.2,9,3.2c8.7,0,15.3-6.5,15.3-17.3C114.6,6.9,108.4,0.6,99.7,0.6 M95.4,24.2c-3.5,0-5.9-2.6-5.9-6.3
			c0-3.8,2.4-6.3,5.9-6.3c3.5,0,6.1,2.4,6.1,6.3C101.5,21.6,98.9,24.2,95.4,24.2 M59.3,12.2c-0.4,0-2.5-0.3-3.5-0.4
			c-1.1-0.1-2-0.3-2-1.1c0-0.8,1.1-1,2.4-1c2.3,0,4.8,0.3,8.2,1.1c2.3,0.5,4.1-0.4,4.6-2.4L70.6,2C66.7,0.7,61.8,0,57,0
			C46.2,0,40.4,4.8,40.4,11.7c0,6.2,3.7,9.9,12.4,11.1c0.4,0,2,0.2,2.3,0.3c2.7,0.3,3.6,0.5,3.6,1.3c0,0.7-0.8,1-2.9,1
			c-3,0-6.2-0.6-9.3-1.5c-2.6-0.7-4.2,0.2-4.9,1.9l-2.3,6.6c4.5,1.9,11.5,3,16.5,3c10.6,0,16.5-3.8,16.5-12
			C72.4,17.3,68.7,13.3,59.3,12.2 M22.5,16.3c0,0,0-0.1,0-0.1c0,0,0.1,0,0.1,0c1.6,1.3,3.6,2,5.8,2c5,0,9.1-4,9.1-9c0-5-4.1-9-9.1-9
			c-5.1,0-9.1,4-9.1,9c0,1,0.2,1.9,0.5,2.8c0,0,0,0.1-0.1,0.1c0,0-0.1,0-0.1,0l-5.4-7.7c-1.5-2.2-3.5-3.9-7.1-3.8
			C2.8,0.6-0.1,3.9,0,7.6c0,1.7,0.8,3.5,1.9,5l14.2,20.3c1.5,2.2,4.2,2.2,5.7,0l6.2-8.8L22.5,16.3z">
   </path>
  </g>
 </g>
</svg>